<svg width="24" height="24" viewBox="0 0 24 24" fill="none" xmlns="http://www.w3.org/2000/svg">
<path d="M12 17.3625C11.8 17.3625 11.6125 17.331 11.4375 17.268C11.2625 17.206 11.1 17.1 10.95 16.95L5.55 11.55C5.275 11.275 5.1375 10.925 5.1375 10.5C5.1375 10.075 5.275 9.725 5.55 9.45C5.825 9.175 6.181 9.031 6.618 9.018C7.056 9.006 7.4125 9.1375 7.6875 9.4125L10.5 12.225V1.5C10.5 1.075 10.644 0.7185 10.932 0.4305C11.219 0.1435 11.575 0 12 0C12.425 0 12.7815 0.1435 13.0695 0.4305C13.3565 0.7185 13.5 1.075 13.5 1.5V12.225L16.3125 9.4125C16.5875 9.1375 16.944 9.006 17.382 9.018C17.819 9.031 18.175 9.175 18.45 9.45C18.725 9.725 18.8625 10.075 18.8625 10.5C18.8625 10.925 18.725 11.275 18.45 11.55L13.05 16.95C12.9 17.1 12.7375 17.206 12.5625 17.268C12.3875 17.331 12.2 17.3625 12 17.3625ZM3 24C2.175 24 1.469 23.7065 0.882 23.1195C0.294 22.5315 0 21.825 0 21V18C0 17.575 0.1435 17.2185 0.4305 16.9305C0.7185 16.6435 1.075 16.5 1.5 16.5C1.925 16.5 2.2815 16.6435 2.5695 16.9305C2.8565 17.2185 3 17.575 3 18V21H21V18C21 17.575 21.144 17.2185 21.432 16.9305C21.719 16.6435 22.075 16.5 22.5 16.5C22.925 16.5 23.281 16.6435 23.568 16.9305C23.856 17.2185 24 17.575 24 18V21C24 21.825 23.7065 22.5315 23.1195 23.1195C22.5315 23.7065 21.825 24 21 24H3Z" fill="#242D53"/>
</svg>
